<?xml version="1.0" encoding="utf-8"?>
<!-- Generator: Adobe Illustrator 25.0.0, SVG Export Plug-In . SVG Version: 6.00 Build 0)  -->
<svg version="1.1" id="Warstwa_1" xmlns="http://www.w3.org/2000/svg" xmlns:xlink="http://www.w3.org/1999/xlink" x="0px" y="0px"
	 viewBox="0 0 155.3 240.2" style="enable-background:new 0 0 155.3 240.2;" xml:space="preserve">
<style type="text/css">
	.st0{fill:#FF6400;}
</style>
<path class="st0" d="M155.3,215.3c0,7.7-26.6,22.3-60.9,22.3l0,0C30.9,237.6,0,199,0,120.1C0,42.9,33.5,0,94.4,0l0,0
	c12,0,26.6,3.4,40.3,10.3c9.4,4.3,20.6,11.2,20.6,15.4c0,1.7,0,3.4-2.6,6l-13.7,18c-1.1,1.9-3,3.1-5.1,3.4c-2.6,0-5.1-1.7-9.4-5.2
	c-6.9-4.3-15.4-10.3-27.5-10.3c-30.9,0-43.8,20.6-43.8,73.8c0,30.9,2.6,51.5,8.6,64.3c6.9,15.4,18,23.1,35.2,23.1
	c12,0,22.3-4.3,29.2-7.7c4.3-2.6,8.6-4.3,11.1-4.3s5.1,4.3,5.1,4.3l11.1,18.9C154.5,211.7,155.1,213.5,155.3,215.3z"/>
</svg>
